<?xml version="1.0"?>
<svg xmlns="http://www.w3.org/2000/svg" height="512px" viewBox="0 0 512 512" width="512px" class=""><g><path d="m256 512c-68.378906 0-132.667969-26.628906-181.019531-74.980469-48.351563-48.351562-74.980469-112.640625-74.980469-181.019531s26.628906-132.667969 74.980469-181.019531c48.351562-48.351563 112.640625-74.980469 181.019531-74.980469s132.667969 26.628906 181.019531 74.980469c48.351563 48.351562 74.980469 112.640625 74.980469 181.019531s-26.628906 132.667969-74.980469 181.019531c-48.351562 48.351563-112.640625 74.980469-181.019531 74.980469zm0-492c-63.039062 0-122.304688 24.546875-166.878906 69.121094-44.574219 44.574218-69.121094 103.839844-69.121094 166.878906s24.546875 122.304688 69.121094 166.878906c44.574218 44.574219 103.839844 69.121094 166.878906 69.121094s122.304688-24.546875 166.878906-69.121094c44.574219-44.574218 69.121094-103.839844 69.121094-166.878906s-24.546875-122.304688-69.121094-166.878906c-44.574218-44.574219-103.839844-69.121094-166.878906-69.121094zm0 0" data-original="#000000" class="active-path" data-old_color="#ffffff" fill="#ffffff"/><path d="m255.9375 462c-113.585938 0-206-92.410156-206-206s92.414062-206 206-206c47.589844 0 94.011719 16.613281 130.714844 46.777344 36.203125 29.75 61.390625 71.253906 70.925781 116.863281 1.128906 5.40625-2.335937 10.703125-7.742187 11.832031-5.40625 1.132813-10.707032-2.332031-11.835938-7.738281-8.605469-41.167969-31.351562-78.636719-64.046875-105.507813-33.132813-27.230468-75.042969-42.226562-118.015625-42.226562-102.558594 0-186 83.4375-186 186s83.441406 186 186 186c42.917969 0 84.785156-14.964844 117.898438-42.132812 32.667968-26.804688 55.433593-64.195313 64.097656-105.289063 1.140625-5.402344 6.445312-8.855469 11.847656-7.722656 5.40625 1.140625 8.863281 6.445312 7.722656 11.847656-9.601562 45.527344-34.808594 86.945313-70.980468 116.628906-36.679688 30.09375-83.054688 46.667969-130.585938 46.667969zm0 0" data-original="#000000" class="active-path" data-old_color="#ffffff" fill="#ffffff"/><path d="m452.082031 266c-5.523437 0-10.007812-4.476562-10.007812-10s4.472656-10 9.996093-10h.011719c5.523438 0 10 4.476562 10 10s-4.476562 10-10 10zm0 0" data-original="#000000" class="active-path" data-old_color="#ffffff" fill="#ffffff"/><path d="m256 386c-71.683594 0-130-58.316406-130-130 0-5.523438 4.476562-10 10-10h40c5.523438 0 10 4.476562 10 10 0 38.597656 31.402344 70 70 70s70-31.402344 70-70-31.402344-70-70-70c-15.316406 0-29.886719 4.890625-41.929688 13.929688l19.570313 19.570312c2.863281 2.863281 3.71875 7.171875 2.160156 10.914062-1.550781 3.726563-5.195312 6.15625-9.230469 6.15625-.011718 0-.023437 0-.035156 0l-80.527344-.269531c-5.511718-.019531-9.96875-4.492187-9.96875-10l-.007812-80.269531c0-4.046875 2.433594-7.691406 6.171875-9.242188 3.734375-1.546874 8.039063-.691406 10.898437 2.167969l18.3125 18.3125c23.535157-20.234375 53.207032-31.269531 84.585938-31.269531 71.683594 0 130 58.316406 130 130s-58.316406 130-130 130zm-109.550781-120c5.066406 55.988281 52.265625 100 109.550781 100 60.652344 0 110-49.347656 110-110s-49.347656-110-110-110c-29.390625 0-57.011719 11.441406-77.777344 32.21875-1.875 1.878906-4.417968 2.933594-7.070312 2.933594s-5.199219-1.054688-7.074219-2.929688l-8.042969-8.046875.003906 46.160157 46.308594.152343-9.988281-9.988281c-1.875-1.875-2.929687-4.421875-2.929687-7.070312 0-2.652344 1.054687-5.199219 2.933593-7.074219 17.007813-16.996094 39.605469-26.355469 63.636719-26.355469 49.625 0 90 40.375 90 90s-40.375 90-90 90c-46.246094 0-84.457031-35.0625-89.449219-80zm0 0" data-original="#000000" class="active-path" data-old_color="#ffffff" fill="#ffffff"/></g> </svg>
